<svg width="151" height="35" viewBox="0 0 151 35" fill="none" xmlns="http://www.w3.org/2000/svg">
<path d="M12.7483 17.0364C12.7483 17.3455 12.4779 17.6159 12.1689 17.6159H10.0055C9.69647 17.6159 9.42605 17.3455 9.42605 17.0364V14.8731C9.42605 14.564 9.69647 14.2936 10.0055 14.2936H12.1689C12.4779 14.2936 12.7483 14.564 12.7483 14.8731V17.0364ZM17.3068 14.8731C17.3068 14.564 17.0364 14.2936 16.7274 14.2936H14.564C14.255 14.2936 13.9845 14.564 13.9845 14.8731V17.0364C13.9845 17.3455 14.255 17.6159 14.564 17.6159H16.7274C17.0364 17.6159 17.3068 17.3455 17.3068 17.0364V14.8731ZM21.8653 14.8731C21.8653 14.564 21.5949 14.2936 21.2859 14.2936H19.0839C18.7748 14.2936 18.5044 14.564 18.5044 14.8731V17.0364C18.5044 17.3455 18.7748 17.6159 19.0839 17.6159H21.2472C21.5563 17.6159 21.8267 17.3455 21.8267 17.0364V14.8731H21.8653ZM12.7483 19.277C12.7483 18.968 12.4779 18.6976 12.1689 18.6976H10.0055C9.69647 18.6976 9.42605 18.968 9.42605 19.277V21.4404C9.42605 21.7494 9.69647 22.0199 10.0055 22.0199H12.1689C12.4779 22.0199 12.7483 21.7494 12.7483 21.4404V19.277ZM17.3068 19.277C17.3068 18.968 17.0364 18.6976 16.7274 18.6976H14.564C14.255 18.6976 13.9845 18.968 13.9845 19.277V21.4404C13.9845 21.7494 14.255 22.0199 14.564 22.0199H16.7274C17.0364 22.0199 17.3068 21.7494 17.3068 21.4404V19.277ZM21.2859 18.6976H19.0839C18.7748 18.6976 18.5044 18.968 18.5044 19.277V21.4404C18.5044 21.7494 18.7748 22.0199 19.0839 22.0199H21.2472C21.5563 22.0199 21.8267 21.7494 21.8267 21.4404V19.277C21.8653 18.968 21.5949 18.6976 21.2859 18.6976ZM7.61037 23.1402H5.44702C5.13797 23.1402 4.86755 23.4106 4.86755 23.7196V25.883C4.86755 26.1921 5.13797 26.4625 5.44702 26.4625H7.61037C7.91943 26.4625 8.18985 26.1921 8.18985 25.883V23.7196C8.18985 23.4106 7.95806 23.1402 7.61037 23.1402ZM8.18985 19.277C8.18985 18.968 7.91943 18.6976 7.61037 18.6976H5.44702C5.13797 18.6976 4.86755 18.968 4.86755 19.277V21.4404C4.86755 21.7494 5.13797 22.0199 5.44702 22.0199H7.61037C7.91943 22.0199 8.18985 21.7494 8.18985 21.4404V19.277ZM16.7274 23.1402H14.564C14.255 23.1402 13.9845 23.4106 13.9845 23.7196V25.883C13.9845 26.1921 14.255 26.4625 14.564 26.4625H16.7274C17.0364 26.4625 17.3068 26.1921 17.3068 25.883V23.7196C17.3068 23.4106 17.0364 23.1402 16.7274 23.1402ZM12.1689 23.1402H10.0055C9.69647 23.1402 9.42605 23.4106 9.42605 23.7196V25.883C9.42605 26.1921 9.69647 26.4625 10.0055 26.4625H12.1689C12.4779 26.4625 12.7483 26.1921 12.7483 25.883V23.7196C12.7483 23.4106 12.4779 23.1402 12.1689 23.1402ZM23.6424 14.2936C23.3333 14.2936 23.0629 14.564 23.0629 14.8731V17.0364C23.0629 17.3455 23.3333 17.6159 23.6424 17.6159H25.8057C26.1148 17.6159 26.3852 17.3455 26.3852 17.0364V14.8731C26.3852 14.564 26.1148 14.2936 25.8057 14.2936H23.6424ZM0 6.76049V27.7759C0 29.6689 1.54525 31.1755 3.39956 31.1755H19.9338C19.6634 30.3256 19.5088 29.4371 19.5088 28.5486H3.43819C3.01324 28.5486 2.66556 28.2009 2.66556 27.7759V12.2461H28.5872V19.5088C29.5143 19.5088 30.4029 19.6634 31.2141 19.8951V6.76049C31.2141 4.86755 29.6689 3.36093 27.8146 3.36093H23.9901V1.2362C23.9901 0.540839 23.4492 0 22.7539 0H20.8223C20.1269 0 19.5861 0.540839 19.5861 1.2362V3.36093H11.7053V1.2362C11.7053 0.540839 11.1645 0 10.4691 0H8.53753C7.84216 0 7.30132 0.540839 7.30132 1.2362V3.36093H3.47682C1.54525 3.36093 0 4.90618 0 6.76049ZM35.0773 28.4713C35.0773 32.064 32.1413 35 28.5486 35C24.9559 35 22.0199 32.064 22.0199 28.4713C22.0199 24.8786 24.9559 21.9426 28.5486 21.9426C32.1413 21.9426 35.0773 24.8786 35.0773 28.4713ZM31.8322 27.0419L30.596 25.8057L27.7373 28.6645L26.5397 27.4669L25.2263 28.7031L26.4238 29.9007L27.66 31.1755L28.9349 29.9393L31.8322 27.0419Z" fill="white"/>
<path d="M43.1327 10.1738H54.2061C54.0308 10.8402 53.8554 11.4714 53.6801 12.0676C53.5047 12.6638 53.3293 13.2776 53.154 13.9088H47.3674C47.3674 13.979 47.3761 14.0798 47.3937 14.2113C47.4112 14.3428 47.42 14.4436 47.42 14.5138V17.2756H52.7331V21.0369H47.42V24.6404L47.3674 25.2453H54.3113V28.9803H43.1326L43.1327 10.1738ZM54.6533 15.224H59.23L61.8077 23.9302L61.8603 24.2458L61.9129 23.9302L64.4379 15.224H68.962L63.8067 29.0066H59.7034L54.6533 15.224ZM75.4325 15.0925C76.3443 15.0925 77.164 15.2195 77.8918 15.4738C78.6196 15.7281 79.2289 16.1401 79.7199 16.71C80.2108 17.2799 80.5878 18.012 80.8509 18.9063C81.1139 19.8006 81.2454 20.879 81.2454 22.1416V22.5493L81.1928 23.3778H73.828L73.2757 23.2989C73.2932 23.8074 73.3502 24.2151 73.4467 24.522C73.5431 24.8288 73.6834 25.07 73.8675 25.2453C74.0516 25.4207 74.2752 25.5434 74.5382 25.6136C74.8013 25.6837 75.0993 25.7276 75.4325 25.7451C75.9761 25.7802 76.4452 25.7013 76.8397 25.5084C77.2343 25.3155 77.6069 24.921 77.9576 24.3248C78.5012 24.5001 79.0009 24.6667 79.4569 24.8245C79.8426 24.9648 80.1933 25.0876 80.509 25.1928C80.8246 25.298 80.9824 25.3418 80.9824 25.3243C80.3512 26.6394 79.584 27.5995 78.6809 28.2044C77.7778 28.8094 76.6951 29.1119 75.4325 29.1119C74.5032 29.1119 73.6614 28.9891 72.9075 28.7437C72.1535 28.4982 71.5134 28.0992 70.9874 27.5469C70.4613 26.9945 70.0536 26.2756 69.7643 25.39C69.4749 24.5045 69.3303 23.4217 69.3303 22.1417C69.3303 20.8967 69.4749 19.8313 69.7643 18.9459C70.0536 18.0604 70.4613 17.3326 70.9874 16.7627C71.5134 16.1929 72.1534 15.772 72.9075 15.5002C73.6615 15.2284 74.5031 15.0925 75.4325 15.0925ZM76.8792 20.353L77.2737 20.4056C77.2387 19.7919 77.0765 19.314 76.7871 18.9721C76.4978 18.6302 76.0463 18.4592 75.4326 18.4592C74.7311 18.4592 74.227 18.6302 73.9201 18.9721C73.6133 19.314 73.4248 19.7919 73.3546 20.4056C73.4423 20.3881 73.5212 20.3749 73.5913 20.3662C73.6615 20.3574 73.7404 20.353 73.8281 20.353H76.8792ZM84.2176 18.5118H82.0082L83.7442 15.2503H87.5581L87.9 16.7232C88.3384 16.2498 88.8601 15.8552 89.465 15.5396C90.07 15.224 90.767 15.0661 91.5561 15.0661C93.1518 15.0661 94.3355 15.4914 95.107 16.3418C95.8784 17.1923 96.2643 18.5381 96.2643 20.3793V28.9803H92.2663V21.0632C92.2663 20.2566 92.069 19.6779 91.6745 19.3272C91.2799 18.9765 90.7758 18.8011 90.1621 18.8011C89.6536 18.8011 89.1976 18.9721 88.7943 19.314C88.391 19.656 88.1894 20.2215 88.1894 21.0106V28.9803H84.2176V18.5118ZM100.078 18.5381H98.4474V15.224H100.078V11.489H104.024V15.224H107.285L105.444 18.5381H103.892L104.024 19.3798V23.5093C104.024 23.9653 104.054 24.3335 104.116 24.6141C104.177 24.8946 104.274 25.1138 104.405 25.2716C104.537 25.4294 104.703 25.5391 104.905 25.6004C105.106 25.6618 105.339 25.6925 105.602 25.6925C105.795 25.6925 106.031 25.6706 106.312 25.6267C106.593 25.5829 106.891 25.5347 107.206 25.4821L107.417 27.2443L107.575 28.8225C107.066 28.9277 106.601 29.0066 106.18 29.0592C105.76 29.1118 105.33 29.1381 104.892 29.1381C103.261 29.1381 102.051 28.7611 101.262 28.0071C100.473 27.2531 100.078 26.0081 100.078 24.2721V18.5381ZM109.679 10.1738H113.861V25.1927H116.886L117.543 25.2716V23.483L121.094 21.826V28.9803H109.679V10.1738ZM127.407 15.2503V28.9803H123.435V19.485L123.567 18.5381H121.305L123.093 15.2503H127.407ZM127.302 14.1192H123.356V10.5421H127.302V14.1192ZM133.193 23.2989C132.247 23.0184 131.466 22.5888 130.852 22.0101C130.239 21.4314 129.932 20.5986 129.932 19.5113C129.932 18.1436 130.414 17.074 131.379 16.3024C132.343 15.5308 133.676 15.1451 135.377 15.1451C136.025 15.1451 136.696 15.2152 137.389 15.3555C138.081 15.4958 138.945 15.75 139.98 16.1183L138.401 18.959C137.858 18.7661 137.389 18.6214 136.994 18.525C136.6 18.4285 136.148 18.3803 135.64 18.3803C135.166 18.3803 134.794 18.4461 134.522 18.5776C134.25 18.7091 134.114 18.9239 134.114 19.222C134.114 19.4675 134.215 19.6429 134.417 19.7481C134.618 19.8533 134.886 19.9673 135.219 20.09L136.639 20.5109C137.113 20.6511 137.555 20.8177 137.967 21.0106C138.38 21.2035 138.73 21.4446 139.02 21.7339C139.309 22.0232 139.537 22.3871 139.703 22.8255C139.87 23.2639 139.953 23.7987 139.953 24.4299C139.953 25.0963 139.817 25.7144 139.546 26.2843C139.274 26.8542 138.879 27.3496 138.362 27.7704C137.845 28.1912 137.213 28.52 136.468 28.7568C135.723 28.9935 134.877 29.1118 133.93 29.1118C133.562 29.1118 133.207 29.0987 132.865 29.0724C132.523 29.0461 132.185 29.0022 131.852 28.9409C131.519 28.8795 131.168 28.7962 130.8 28.691C130.432 28.5858 130.037 28.463 129.616 28.3228C129.651 28.2 129.686 28.0597 129.721 27.9019C129.757 27.7441 129.809 27.5468 129.879 27.3101C129.949 27.0734 130.028 26.7884 130.116 26.4553C130.204 26.1221 130.318 25.71 130.458 25.219C131.194 25.4119 131.813 25.5522 132.312 25.6398C132.812 25.7275 133.316 25.7713 133.825 25.7713C134.035 25.7713 134.259 25.7538 134.495 25.7187C134.732 25.6837 134.956 25.6223 135.166 25.5346C135.377 25.447 135.552 25.333 135.692 25.1927C135.832 25.0525 135.903 24.8683 135.903 24.6404C135.903 24.3773 135.811 24.1932 135.626 24.088C135.442 23.9828 135.166 23.8688 134.798 23.7461L133.193 23.2989ZM142.978 18.5381H141.347V15.224H142.978V11.489H146.924V15.224H150.185L148.344 18.5381H146.792L146.924 19.3798V23.5093C146.924 23.9653 146.954 24.3335 147.016 24.6141C147.077 24.8946 147.173 25.1138 147.305 25.2716C147.436 25.4294 147.603 25.5391 147.805 25.6004C148.006 25.6618 148.239 25.6925 148.502 25.6925C148.695 25.6925 148.931 25.6706 149.212 25.6267C149.492 25.5829 149.791 25.5347 150.106 25.4821L150.317 27.2443L150.474 28.8225C149.966 28.9277 149.501 29.0066 149.08 29.0592C148.659 29.1118 148.23 29.1381 147.791 29.1381C146.161 29.1381 144.951 28.7611 144.162 28.0071C143.373 27.2531 142.978 26.0081 142.978 24.2721V18.5381Z" fill="white"/>
</svg>
